<svg version="1.1" xmlns="http://www.w3.org/2000/svg" viewBox="0 0 583.5459594726562 1013.1693009213711" width="583.5459594726562" height="1013.1693009213711" filter="invert(93%) hue-rotate(180deg)">
  <!-- svg-source:excalidraw -->
  
  <defs>
    <style class="style-fonts">
      @font-face {
        font-family: "Virgil";
        src: url("https://excalidraw.com/Virgil.woff2");
      }
      @font-face {
        font-family: "Cascadia";
        src: url("https://excalidraw.com/Cascadia.woff2");
      }
    </style>
  </defs>
  <rect x="0" y="0" width="583.5459594726562" height="1013.1693009213711" fill="#ffffff"></rect><g stroke-linecap="round" transform="translate(224.6441650390625 10) rotate(0 100 50)"><path d="M126.25 12.75 M126.25 12.75 C136.42 19.29, 149.68 25.17, 174.75 38.25 M126.25 12.75 C137.34 19.18, 148.98 24.01, 174.75 38.25 M174.75 38.25 C199.08 49.36, 198.55 52.14, 174.75 63.75 M174.75 38.25 C197.96 53.29, 201.65 51.87, 174.75 63.75 M174.75 63.75 C156.77 72.39, 138.66 80.71, 126.25 87.25 M174.75 63.75 C158.2 71.48, 140.49 79.96, 126.25 87.25 M126.25 87.25 C100.88 101.55, 100.48 101.11, 75.75 87.25 M126.25 87.25 C99.59 100.71, 99.94 101.46, 75.75 87.25 M75.75 87.25 C64.33 82.74, 49.93 75.37, 25.25 63.75 M75.75 87.25 C62.26 79.56, 46.29 73.82, 25.25 63.75 M25.25 63.75 C1.68 50.14, -1.41 50.31, 25.25 38.25 M25.25 63.75 C1.83 51.94, 0.64 51.83, 25.25 38.25 M25.25 38.25 C40.78 29.51, 56.99 19.86, 75.75 12.75 M25.25 38.25 C42.57 28.78, 61.96 19.36, 75.75 12.75 M75.75 12.75 C101.78 -1.51, 100.23 -1.84, 126.25 12.75 M75.75 12.75 C100.15 1.1, 100.89 0.21, 126.25 12.75" stroke="#1e1e1e" stroke-width="1" fill="none"></path></g><g transform="translate(291.5881805419922 40) rotate(0 33.05598449707031 20)"><text x="33.05598449707031" y="0" font-family="Virgil, Segoe UI Emoji" font-size="16px" fill="#1e1e1e" text-anchor="middle" style="white-space: pre;" direction="ltr" dominant-baseline="text-before-edge">Order </text><text x="33.05598449707031" y="20" font-family="Virgil, Segoe UI Emoji" font-size="16px" fill="#1e1e1e" text-anchor="middle" style="white-space: pre;" direction="ltr" dominant-baseline="text-before-edge">Received</text></g><g stroke-linecap="round" transform="translate(225.34368896484375 182.5628662109375) rotate(0 102.5 27)"><path d="M13.5 0 M13.5 0 C59 3.31, 101.6 -0.42, 191.5 0 M13.5 0 C70.08 1.3, 126.97 0.36, 191.5 0 M191.5 0 C200.73 0.27, 206.17 5.77, 205 13.5 M191.5 0 C201.61 0.13, 203.75 4.02, 205 13.5 M205 13.5 C205.07 21.29, 204.01 34.1, 205 40.5 M205 13.5 C204.25 21.85, 205.32 30.64, 205 40.5 M205 40.5 C205.38 51.38, 198.79 54.89, 191.5 54 M205 40.5 C205.04 49.97, 199.64 52.01, 191.5 54 M191.5 54 C135.63 54.46, 80.13 51.88, 13.5 54 M191.5 54 C137.84 52.14, 86.61 53.02, 13.5 54 M13.5 54 C2.97 54.74, -0.48 49.5, 0 40.5 M13.5 54 C4.98 53.87, -0.3 49.13, 0 40.5 M0 40.5 C-0.4 30.74, 1.81 24.69, 0 13.5 M0 40.5 C0.8 29.93, 0.01 20.2, 0 13.5 M0 13.5 C0.62 2.65, 3.91 -0.35, 13.5 0 M0 13.5 C-0.83 4.64, 4.88 0.84, 13.5 0" stroke="#1e1e1e" stroke-width="1" fill="none"></path></g><g transform="translate(252.03573608398438 199.5628662109375) rotate(0 75.80795288085938 10)"><text x="75.80795288085938" y="0" font-family="Virgil, Segoe UI Emoji" font-size="16px" fill="#1e1e1e" text-anchor="middle" style="white-space: pre;" direction="ltr" dominant-baseline="text-before-edge">Processing Payment</text></g><g stroke-linecap="round"><g transform="translate(327.11885697891216 116.29518816766296) rotate(0 1.11525103032875 29.63215342481172)"><path d="M1.11 -0.17 C1.33 9.85, 1.8 50.69, 2 60.56 M0.23 -1.3 C0.31 8.35, 1.19 48.7, 1.5 58.94" stroke="#1e1e1e" stroke-width="1" fill="none"></path></g><g transform="translate(327.11885697891216 116.29518816766296) rotate(0 1.11525103032875 29.63215342481172)"><path d="M-9.68 32.62 C-3.8 42.92, -2.35 52.69, 0.33 57.89 M-9.16 30.99 C-7.52 37.9, -3.45 43.68, 2.11 59.81" stroke="#1e1e1e" stroke-width="1" fill="none"></path></g><g transform="translate(327.11885697891216 116.29518816766296) rotate(0 1.11525103032875 29.63215342481172)"><path d="M10.71 32.11 C9.27 42.78, 3.42 52.73, 0.33 57.89 M11.23 30.48 C7.99 37.58, 7.18 43.48, 2.11 59.81" stroke="#1e1e1e" stroke-width="1" fill="none"></path></g></g><mask></mask><g stroke-linecap="round" transform="translate(229.43731689453125 295.2178039550781) rotate(0 100 50)"><path d="M126.25 12.75 M126.25 12.75 C140.59 22.82, 159.88 27.96, 174.75 38.25 M126.25 12.75 C139.2 18.97, 153.37 27.13, 174.75 38.25 M174.75 38.25 C201.59 50.89, 198.58 52.69, 174.75 63.75 M174.75 38.25 C201.51 53.12, 199.17 49.48, 174.75 63.75 M174.75 63.75 C160.3 70.59, 146.8 78.92, 126.25 87.25 M174.75 63.75 C160.58 69.77, 145.84 77.16, 126.25 87.25 M126.25 87.25 C99.04 98.96, 100.31 100.34, 75.75 87.25 M126.25 87.25 C99.64 98.34, 99.45 101.68, 75.75 87.25 M75.75 87.25 C61.51 80.06, 44.8 70.3, 25.25 63.75 M75.75 87.25 C60.04 79.03, 44.09 73.09, 25.25 63.75 M25.25 63.75 C-1.06 51.21, -1.25 51.01, 25.25 38.25 M25.25 63.75 C2.22 51.63, -0.48 53.03, 25.25 38.25 M25.25 38.25 C45.2 28.46, 64.71 17.37, 75.75 12.75 M25.25 38.25 C40.65 31.53, 55.69 22.13, 75.75 12.75 M75.75 12.75 C100.18 -0.19, 101.61 -0.57, 126.25 12.75 M75.75 12.75 C103.24 -0.8, 103.03 0, 126.25 12.75" stroke="#1e1e1e" stroke-width="1" fill="none"></path></g><g transform="translate(289.7653350830078 325.2178039550781) rotate(0 39.67198181152344 20)"><text x="39.67198181152344" y="0" font-family="Virgil, Segoe UI Emoji" font-size="16px" fill="#1e1e1e" text-anchor="middle" style="white-space: pre;" direction="ltr" dominant-baseline="text-before-edge">Payment </text><text x="39.67198181152344" y="20" font-family="Virgil, Segoe UI Emoji" font-size="16px" fill="#1e1e1e" text-anchor="middle" style="white-space: pre;" direction="ltr" dominant-baseline="text-before-edge">Succeeded</text></g><g stroke-linecap="round" transform="translate(87.540283203125 460.6014099121094) rotate(0 102.5 27)"><path d="M13.5 0 M13.5 0 C57.12 -1.54, 99.53 -2.32, 191.5 0 M13.5 0 C65.04 1.28, 115.75 1.94, 191.5 0 M191.5 0 C198.77 0.76, 204.14 3.44, 205 13.5 M191.5 0 C198.63 -0.18, 206.88 4.54, 205 13.5 M205 13.5 C207.03 21.54, 207.04 30.57, 205 40.5 M205 13.5 C204.33 21.6, 204.8 29.84, 205 40.5 M205 40.5 C203.37 51.45, 201.11 52.11, 191.5 54 M205 40.5 C206.3 50.4, 201.51 52.46, 191.5 54 M191.5 54 C154.65 54.38, 120.43 56.73, 13.5 54 M191.5 54 C127.31 56.04, 63.98 56.26, 13.5 54 M13.5 54 C5 55.83, -0.91 49.61, 0 40.5 M13.5 54 C5.15 52.22, -0.35 49.7, 0 40.5 M0 40.5 C-0.88 33.48, -0.49 29.29, 0 13.5 M0 40.5 C-0.07 33.07, 0.9 26.04, 0 13.5 M0 13.5 C1.23 3.35, 5.96 -0.8, 13.5 0 M0 13.5 C0.06 4.28, 2.35 -1.16, 13.5 0" stroke="#1e1e1e" stroke-width="1" fill="none"></path></g><g transform="translate(124.6883316040039 477.6014099121094) rotate(0 65.3519515991211 10)"><text x="65.3519515991211" y="0" font-family="Virgil, Segoe UI Emoji" font-size="16px" fill="#1e1e1e" text-anchor="middle" style="white-space: pre;" direction="ltr" dominant-baseline="text-before-edge">Processing Order</text></g><g stroke-linecap="round" transform="translate(87.2791748046875 571.3699035644531) rotate(0 102.5 27)"><path d="M13.5 0 M13.5 0 C60.58 0.23, 104.77 0.84, 191.5 0 M13.5 0 C50.1 0.19, 87.71 0.54, 191.5 0 M191.5 0 C198.61 -0.56, 203.29 2.65, 205 13.5 M191.5 0 C199.08 1, 205.76 3.58, 205 13.5 M205 13.5 C205.44 22.4, 205.84 28.7, 205 40.5 M205 13.5 C205.9 21.97, 204.39 30.64, 205 40.5 M205 40.5 C206.71 50.53, 199 55.55, 191.5 54 M205 40.5 C206.88 50.25, 200.01 54.81, 191.5 54 M191.5 54 C135.75 53.34, 76.81 55.56, 13.5 54 M191.5 54 C138.46 55.14, 83.72 54.63, 13.5 54 M13.5 54 C4.41 54.33, -0.22 48.69, 0 40.5 M13.5 54 C3.22 52.14, 1.71 51.33, 0 40.5 M0 40.5 C0.61 35.57, 1.33 28.8, 0 13.5 M0 40.5 C-0.92 31.94, -1.14 25.37, 0 13.5 M0 13.5 C1.35 4.89, 4.79 -0.05, 13.5 0 M0 13.5 C1.21 3.28, 2.31 -1.24, 13.5 0" stroke="#1e1e1e" stroke-width="1" fill="none"></path></g><g transform="translate(152.4031982421875 588.3699035644531) rotate(0 37.3759765625 10)"><text x="37.3759765625" y="0" font-family="Virgil, Segoe UI Emoji" font-size="16px" fill="#1e1e1e" text-anchor="middle" style="white-space: pre;" direction="ltr" dominant-baseline="text-before-edge">Packaging</text></g><g stroke-linecap="round" transform="translate(368.54595947265625 459.7179870605469) rotate(0 102.5 27)"><path d="M13.5 0 M13.5 0 C69.08 -1.93, 121.25 -2.96, 191.5 0 M13.5 0 C65.68 -0.36, 117.87 0.94, 191.5 0 M191.5 0 C202.09 -1.31, 206.9 4.94, 205 13.5 M191.5 0 C201.5 1.61, 206.83 5.61, 205 13.5 M205 13.5 C203.62 19.61, 203.19 29.72, 205 40.5 M205 13.5 C205.03 23.94, 204.52 32.38, 205 40.5 M205 40.5 C203.92 47.56, 199.06 55.71, 191.5 54 M205 40.5 C203.49 49.36, 202.03 53.31, 191.5 54 M191.5 54 C148.26 53.91, 105.22 54.47, 13.5 54 M191.5 54 C136.33 54.71, 79.96 54.4, 13.5 54 M13.5 54 C4.62 53.46, -0.36 49.56, 0 40.5 M13.5 54 C5.29 52.52, 0.93 47.36, 0 40.5 M0 40.5 C-1.59 33.99, -1.23 25.68, 0 13.5 M0 40.5 C-0.7 32.29, -0.72 22.47, 0 13.5 M0 13.5 C1.67 6.05, 2.6 -1.19, 13.5 0 M0 13.5 C0.59 5.3, 5.14 0.31, 13.5 0" stroke="#1e1e1e" stroke-width="1" fill="none"></path></g><g transform="translate(398.8300018310547 476.7179870605469) rotate(0 72.21595764160156 10)"><text x="72.21595764160156" y="0" font-family="Virgil, Segoe UI Emoji" font-size="16px" fill="#1e1e1e" text-anchor="middle" style="white-space: pre;" direction="ltr" dominant-baseline="text-before-edge">Order Cancellation</text></g><g stroke-linecap="round" transform="translate(88.01922607421875 678.0533752441406) rotate(0 102.5 27)"><path d="M13.5 0 M13.5 0 C55.13 0.79, 97.82 -1.18, 191.5 0 M13.5 0 C58.87 0.01, 105.72 1.08, 191.5 0 M191.5 0 C200.85 1.87, 204.25 3.9, 205 13.5 M191.5 0 C202.52 1.22, 205.89 6.11, 205 13.5 M205 13.5 C204.41 22.38, 204.15 27.98, 205 40.5 M205 13.5 C205.1 20.19, 204.76 27.48, 205 40.5 M205 40.5 C206.14 47.87, 199.94 55.03, 191.5 54 M205 40.5 C206.27 49.69, 200.47 53.77, 191.5 54 M191.5 54 C154.64 53.91, 117.83 55.6, 13.5 54 M191.5 54 C152.03 53.65, 113.22 53.05, 13.5 54 M13.5 54 C3.56 54.72, 0.61 50.73, 0 40.5 M13.5 54 C2.79 54.94, 0.14 51.1, 0 40.5 M0 40.5 C-0.35 31.99, 0.91 24.14, 0 13.5 M0 40.5 C0.83 31.22, 1.13 23.72, 0 13.5 M0 13.5 C1.05 4.65, 4.7 1.91, 13.5 0 M0 13.5 C-2.19 2.64, 2.41 -0.2, 13.5 0" stroke="#1e1e1e" stroke-width="1" fill="none"></path></g><g transform="translate(162.56725311279297 695.0533752441406) rotate(0 27.95197296142578 10)"><text x="27.95197296142578" y="0" font-family="Virgil, Segoe UI Emoji" font-size="16px" fill="#1e1e1e" text-anchor="middle" style="white-space: pre;" direction="ltr" dominant-baseline="text-before-edge">Shipping</text></g><g stroke-linecap="round" transform="translate(91.5948486328125 786.6864013671875) rotate(0 100 50)"><path d="M126.25 12.75 M126.25 12.75 C144.25 20.84, 159.54 31.21, 174.75 38.25 M126.25 12.75 C143.65 21.13, 163.04 30.82, 174.75 38.25 M174.75 38.25 C201.29 51.01, 201.07 51.24, 174.75 63.75 M174.75 38.25 C199.12 49.05, 197.73 51.58, 174.75 63.75 M174.75 63.75 C164.82 71.54, 149.56 73.76, 126.25 87.25 M174.75 63.75 C154.85 72.12, 136.4 81.9, 126.25 87.25 M126.25 87.25 C99.57 98.89, 102.12 101.12, 75.75 87.25 M126.25 87.25 C102.98 100.85, 99.01 99.42, 75.75 87.25 M75.75 87.25 C62.23 82.48, 50.95 76.64, 25.25 63.75 M75.75 87.25 C62.93 82.04, 49.38 76.29, 25.25 63.75 M25.25 63.75 C-1.35 51.84, -0.61 51.18, 25.25 38.25 M25.25 63.75 C-2.12 52.38, -1.27 52.9, 25.25 38.25 M25.25 38.25 C42.33 28.52, 64.22 20.74, 75.75 12.75 M25.25 38.25 C36.17 33.52, 48.13 27.25, 75.75 12.75 M75.75 12.75 C102.75 1.2, 100.45 1.77, 126.25 12.75 M75.75 12.75 C101.28 1.4, 99.41 -0.15, 126.25 12.75" stroke="#1e1e1e" stroke-width="1" fill="none"></path></g><g transform="translate(156.1948699951172 816.6864013671875) rotate(0 35.39997863769531 20)"><text x="35.39997863769531" y="0" font-family="Virgil, Segoe UI Emoji" font-size="16px" fill="#1e1e1e" text-anchor="middle" style="white-space: pre;" direction="ltr" dominant-baseline="text-before-edge">Order </text><text x="35.39997863769531" y="20" font-family="Virgil, Segoe UI Emoji" font-size="16px" fill="#1e1e1e" text-anchor="middle" style="white-space: pre;" direction="ltr" dominant-baseline="text-before-edge">Delivered</text></g><g stroke-linecap="round"><g transform="translate(331.3525390625 246.38809204101562) rotate(0 0.7893081822712134 20.881757128369088)"><path d="M0.73 -0.23 C1.08 6.69, 1.74 34.92, 1.92 41.81 M-0.35 -1.4 C-0.07 5.67, 1.08 35.96, 1.36 43.17" stroke="#1e1e1e" stroke-width="1" fill="none"></path></g><g transform="translate(331.3525390625 246.38809204101562) rotate(0 0.7893081822712134 20.881757128369088)"><path d="M-7 24.88 C-4.85 30.18, -3.78 33.45, 1.14 43.51 M-7.35 22.71 C-3.63 27.85, -3.3 33.3, 2.05 43.17" stroke="#1e1e1e" stroke-width="1" fill="none"></path></g><g transform="translate(331.3525390625 246.38809204101562) rotate(0 0.7893081822712134 20.881757128369088)"><path d="M7.41 24.32 C5.46 29.87, 2.45 33.29, 1.14 43.51 M7.05 22.15 C7.1 27.33, 3.75 32.93, 2.05 43.17" stroke="#1e1e1e" stroke-width="1" fill="none"></path></g></g><mask></mask><g mask="url(#mask-OgzKSEaJUgFCxQWJPd88B)" stroke-linecap="round"><g transform="translate(385.6783477705641 381.50655975729615) rotate(0 36.984096627031306 35.19118475608332)"><path d="M0.7 -1.03 C13.21 10.81, 62.33 59.37, 74.36 71.41 M-0.39 1.05 C12.1 12.56, 61.83 58.53, 73.86 69.92" stroke="#1e1e1e" stroke-width="1" fill="none"></path></g><g transform="translate(385.6783477705641 381.50655975729615) rotate(0 36.984096627031306 35.19118475608332)"><path d="M44.54 59.58 C54.91 59.75, 61.19 62.86, 75.15 71.79 M46.54 57.96 C52.77 60.74, 58.14 62.45, 74.23 69.03" stroke="#1e1e1e" stroke-width="1" fill="none"></path></g><g transform="translate(385.6783477705641 381.50655975729615) rotate(0 36.984096627031306 35.19118475608332)"><path d="M58.54 44.58 C65.6 48.43, 68.51 55.15, 75.15 71.79 M60.55 42.96 C63.71 48.91, 66.11 53.79, 74.23 69.03" stroke="#1e1e1e" stroke-width="1" fill="none"></path></g></g><mask id="mask-OgzKSEaJUgFCxQWJPd88B"><rect x="0" y="0" fill="#fff" width="559.2001644049152" height="551.7181396484375"></rect><rect x="412.8552640833451" y="406.6123497028668" fill="#000" width="19.167984008789062" height="20" opacity="1"></rect></mask><g transform="translate(412.855264083345 406.6123497028668) rotate(0 9.807180314250274 10.08539481051264)"><text x="9.583992004394531" y="0" font-family="Virgil, Segoe UI Emoji" font-size="16px" fill="#1e1e1e" text-anchor="middle" style="white-space: pre;" direction="ltr" dominant-baseline="text-before-edge">No</text></g><g mask="url(#mask-rWZ6DmXWtPtlFQrNXJaod)" stroke-linecap="round"><g transform="translate(282.922607421875 381.0468444824219) rotate(0 -45.08650796737521 35.72375337149947)"><path d="M0.31 0.74 C-14.55 12.7, -74.58 59.89, -89.48 71.37 M-0.98 0.08 C-15.99 11.74, -75.69 57.91, -90.49 69.62" stroke="#1e1e1e" stroke-width="1" fill="none"></path></g><g transform="translate(282.922607421875 381.0468444824219) rotate(0 -45.08650796737521 35.72375337149947)"><path d="M-73.36 44 C-77.86 51.68, -85.21 56.76, -88.91 70.77 M-73.98 44.01 C-78.74 51.69, -83.39 57.9, -91.46 69.45" stroke="#1e1e1e" stroke-width="1" fill="none"></path></g><g transform="translate(282.922607421875 381.0468444824219) rotate(0 -45.08650796737521 35.72375337149947)"><path d="M-60.72 60.17 C-68.66 63.42, -79.49 64.05, -88.91 70.77 M-61.35 60.18 C-69.63 63.16, -77.94 64.7, -91.46 69.45" stroke="#1e1e1e" stroke-width="1" fill="none"></path></g></g><mask id="mask-rWZ6DmXWtPtlFQrNXJaod"><rect x="0" y="0" fill="#fff" width="472.29071044921875" height="551.6974792480469"></rect><rect x="225.39056396484375" y="406.3721618652344" fill="#000" width="25.69598388671875" height="20" opacity="1"></rect></mask><g transform="translate(225.39056396484375 406.3721618652344) rotate(0 12.445535489656038 10.39843598868697)"><text x="12.847991943359375" y="0" font-family="Virgil, Segoe UI Emoji" font-size="16px" fill="#1e1e1e" text-anchor="middle" style="white-space: pre;" direction="ltr" dominant-baseline="text-before-edge">Yes</text></g><g stroke-linecap="round"><g transform="translate(187.38452018997145 522.8219299316406) rotate(0 0.2771882897258138 20.58489433331414)"><path d="M0.96 -0.36 C1.11 6.41, 1 34.53, 0.93 41.76 M0 -1.59 C-0.06 5.8, -0.81 35.08, -0.31 42.76" stroke="#1e1e1e" stroke-width="1" fill="none"></path></g><g transform="translate(187.38452018997145 522.8219299316406) rotate(0 0.2771882897258138 20.58489433331414)"><path d="M-8.51 21.82 C-7.13 27.21, -2.68 36.4, -1.24 41.97 M-7.08 23.53 C-6.87 28.35, -4.02 31.77, 0.27 42.65" stroke="#1e1e1e" stroke-width="1" fill="none"></path></g><g transform="translate(187.38452018997145 522.8219299316406) rotate(0 0.2771882897258138 20.58489433331414)"><path d="M6.13 21.62 C3.08 27.18, 3.1 36.44, -1.24 41.97 M7.56 23.33 C4.3 28.29, 3.68 31.76, 0.27 42.65" stroke="#1e1e1e" stroke-width="1" fill="none"></path></g></g><mask></mask><g stroke-linecap="round"><g transform="translate(189.0271434319227 630.7160339355469) rotate(0 1.0562143190525148 19.417921474091713)"><path d="M1.15 -0.06 C1.61 6.66, 1.95 33.28, 1.78 39.97 M0.29 -1.14 C0.75 5.3, 0.9 31.8, 1.28 38.38" stroke="#1e1e1e" stroke-width="1" fill="none"></path></g><g transform="translate(189.0271434319227 630.7160339355469) rotate(0 1.0562143190525148 19.417921474091713)"><path d="M-6.01 21.67 C-2.77 22.82, -1.01 27.34, 1.2 39.23 M-6.32 20.31 C-4.48 25.65, -0.71 32.15, 0.37 37.73" stroke="#1e1e1e" stroke-width="1" fill="none"></path></g><g transform="translate(189.0271434319227 630.7160339355469) rotate(0 1.0562143190525148 19.417921474091713)"><path d="M7.32 21.28 C7.66 22.65, 6.51 27.25, 1.2 39.23 M7 19.92 C4.44 25.34, 3.81 31.96, 0.37 37.73" stroke="#1e1e1e" stroke-width="1" fill="none"></path></g></g><mask></mask><g stroke-linecap="round"><g transform="translate(188.400146484375 739.9228210449219) rotate(0 0.16142829907130363 21.989782299725334)"><path d="M-0.4 -0.71 C-0.8 6.41, -1.1 36.01, -1.27 43.4 M1.59 1.53 C1.47 8.75, 1.15 37.48, 1.05 44.69" stroke="#1e1e1e" stroke-width="1" fill="none"></path></g><g transform="translate(188.400146484375 739.9228210449219) rotate(0 0.16142829907130363 21.989782299725334)"><path d="M-7.39 22.75 C-3.99 30.75, -0.76 41.78, 1.08 44.03 M-5.98 23.4 C-3.95 28.64, -1.62 35.76, 0.83 45.5" stroke="#1e1e1e" stroke-width="1" fill="none"></path></g><g transform="translate(188.400146484375 739.9228210449219) rotate(0 0.16142829907130363 21.989782299725334)"><path d="M7.61 22.93 C5.07 30.81, 2.37 41.77, 1.08 44.03 M9.02 23.58 C6.95 28.89, 5.18 35.96, 0.83 45.5" stroke="#1e1e1e" stroke-width="1" fill="none"></path></g></g><mask></mask><g stroke-linecap="round" transform="translate(231.7581787109375 949.1693009213711) rotate(0 102.5 27)"><path d="M13.5 0 M13.5 0 C58.47 1.85, 103.92 1.1, 191.5 0 M13.5 0 C51.25 2.75, 88.42 1.27, 191.5 0 M191.5 0 C198.85 -1.6, 204.81 5.27, 205 13.5 M191.5 0 C202.06 -1.06, 204.44 6.58, 205 13.5 M205 13.5 C205.34 21.23, 206.71 30.08, 205 40.5 M205 13.5 C205.03 20.97, 205.29 26.2, 205 40.5 M205 40.5 C204.44 49.3, 199.8 55.1, 191.5 54 M205 40.5 C203.95 51.66, 201.85 52.69, 191.5 54 M191.5 54 C145.7 53.42, 104.84 54.64, 13.5 54 M191.5 54 C145.65 52.26, 98.56 53.63, 13.5 54 M13.5 54 C2.62 53.22, 0.11 50.47, 0 40.5 M13.5 54 C4.77 55.62, -1.01 49.57, 0 40.5 M0 40.5 C-0.99 32.71, 1.96 23.79, 0 13.5 M0 40.5 C0.84 30.87, 0.73 21.4, 0 13.5 M0 13.5 C1.46 2.55, 5.83 1.09, 13.5 0 M0 13.5 C-1.47 4.34, 3.32 1.49, 13.5 0" stroke="#1e1e1e" stroke-width="1" fill="none"></path></g><g transform="translate(267.86622619628906 966.1693009213711) rotate(0 66.39195251464844 10)"><text x="66.39195251464844" y="0" font-family="Virgil, Segoe UI Emoji" font-size="16px" fill="#1e1e1e" text-anchor="middle" style="white-space: pre;" direction="ltr" dominant-baseline="text-before-edge">Refund Customer</text></g><g mask="url(#mask-npIi1y7zsPDD8VLSKOaQQ)" stroke-linecap="round"><g transform="translate(248.8905670088452 870.9578736181204) rotate(0 36.108122079317354 34.42150648545277)"><path d="M-0.22 -1.08 C12.08 10.34, 61.64 56.94, 74 69.01 M-1.79 0.97 C10.37 12.45, 60.78 58.48, 73.31 69.92" stroke="#1e1e1e" stroke-width="1" fill="none"></path></g><g transform="translate(248.8905670088452 870.9578736181204) rotate(0 36.108122079317354 34.42150648545277)"><path d="M43.78 59.28 C52.49 62.9, 65.3 66.11, 72.3 68.27 M46.25 58.02 C51.43 61.8, 58.06 64.39, 73.55 69.96" stroke="#1e1e1e" stroke-width="1" fill="none"></path></g><g transform="translate(248.8905670088452 870.9578736181204) rotate(0 36.108122079317354 34.42150648545277)"><path d="M57.62 44.13 C61.97 52.57, 70.35 60.63, 72.3 68.27 M60.1 42.87 C62.21 50.04, 65.79 55.96, 73.55 69.96" stroke="#1e1e1e" stroke-width="1" fill="none"></path></g></g><mask id="mask-npIi1y7zsPDD8VLSKOaQQ"><rect x="0" y="0" fill="#fff" width="422.41238364319634" height="1041.1694535092618"></rect><rect x="276.06748332162624" y="896.0636635636911" fill="#000" width="19.167984008789062" height="20" opacity="1"></rect></mask><g transform="translate(276.06748332162624 896.0636635636911) rotate(0 8.931205766536323 9.31571653988209)"><text x="9.583992004394531" y="0" font-family="Virgil, Segoe UI Emoji" font-size="16px" fill="#1e1e1e" text-anchor="middle" style="white-space: pre;" direction="ltr" dominant-baseline="text-before-edge">No</text></g><g mask="url(#mask-sY8OO3YXkahaUaHF7A0CI)" stroke-linecap="round"><g transform="translate(131.05470865096902 874.5373550269378) rotate(0 -44.221505934745096 35.77406640153379)"><path d="M-0.71 -0.83 C-15.71 11.08, -73.91 58.87, -88.88 70.78 M1.13 1.35 C-14.1 13.53, -74.68 60.62, -89.57 72.38" stroke="#1e1e1e" stroke-width="1" fill="none"></path></g><g transform="translate(131.05470865096902 874.5373550269378) rotate(0 -44.221505934745096 35.77406640153379)"><path d="M-75.08 47.74 C-79.94 55.03, -86.51 65.71, -89.03 72.71 M-73.11 47.18 C-76.6 52.38, -80.49 57.39, -88.89 71.69" stroke="#1e1e1e" stroke-width="1" fill="none"></path></g><g transform="translate(131.05470865096902 874.5373550269378) rotate(0 -44.221505934745096 35.77406640153379)"><path d="M-62.43 63.9 C-72.23 64.69, -83.83 68.95, -89.03 72.71 M-60.46 63.34 C-66.61 65.18, -73.1 66.87, -88.89 71.69" stroke="#1e1e1e" stroke-width="1" fill="none"></path></g></g><mask id="mask-sY8OO3YXkahaUaHF7A0CI"><rect x="0" y="0" fill="#fff" width="320.42281167831277" height="1045.1879897925628"></rect><rect x="73.52266519393777" y="899.8626724097503" fill="#000" width="25.69598388671875" height="20" opacity="1"></rect></mask><g transform="translate(73.52266519393777 899.8626724097503) rotate(0 13.310537522286154 10.448749018721287)"><text x="12.847991943359375" y="0" font-family="Virgil, Segoe UI Emoji" font-size="16px" fill="#1e1e1e" text-anchor="middle" style="white-space: pre;" direction="ltr" dominant-baseline="text-before-edge">Yes</text></g><g transform="translate(10 960.1003112792969) rotate(0 23.939987182617188 17.5)"><text x="0" y="0" font-family="Virgil, Segoe UI Emoji" font-size="28px" fill="#2f9e44" text-anchor="start" style="white-space: pre;" direction="ltr" dominant-baseline="text-before-edge">End</text></g></svg>